<?xml version="1.0" encoding="UTF-8" standalone="no"?>
<svg width="57px" height="65px" viewBox="0 0 57 65" version="1.1" xmlns="http://www.w3.org/2000/svg" xmlns:xlink="http://www.w3.org/1999/xlink">
    <!-- Generator: Sketch 3.6.1 (26313) - http://www.bohemiancoding.com/sketch -->
    <title>正品保障</title>
    <desc>Created with Sketch.</desc>
    <defs></defs>
    <g id="Page-2" stroke="none" stroke-width="1" fill="none" fill-rule="evenodd">
        <g id="正品保障" transform="translate(-32.000000, -28.000000)">
            <g transform="translate(34.000000, 30.000000)">
                <path d="M26.0407987,60 C26.0407987,60 2.71219308,49.6970654 0.894631179,36.0603911 C-0.922899993,22.4239473 0.591503725,6.06039105 0.591503725,6.06039105 C0.591503725,6.06039105 18.4728212,8.52651283e-14 26.0407988,8.52651283e-14 C33.6087764,8.52651283e-14 51.5087988,6.06039105 51.5087988,6.06039105 C51.5087988,6.06039105 53.0246165,22.4240765 51.2056111,36.0603911 C49.3865574,49.6970675 26.0407987,60 26.0407987,60 Z" id="Shape" stroke="#D21F16" stroke-width="4" transform="translate(26.050455, 30.000000) scale(-1, 1) translate(-26.050455, -30.000000) "></path>
                <path d="M27.764,36.88 L27.764,28.144 L36.5,28.144 L36.5,26.1 L27.764,26.1 L27.764,18.652 L37.564,18.652 L37.564,16.636 L14.632,16.636 L14.632,18.652 L25.636,18.652 L25.636,36.88 L19.476,36.88 L19.476,23.776 L17.376,23.776 L17.376,36.88 L13.568,36.88 L13.568,38.924 L38.488,38.924 L38.488,36.88 L27.764,36.88 Z" id="正" fill="#D21F16"></path>
            </g>
        </g>
    </g>
</svg>