<?xml version="1.0" encoding="UTF-8" standalone="no"?>
<svg width="57px" height="65px" viewBox="0 0 57 65" version="1.1" xmlns="http://www.w3.org/2000/svg" xmlns:xlink="http://www.w3.org/1999/xlink">
    <!-- Generator: Sketch 3.6.1 (26313) - http://www.bohemiancoding.com/sketch -->
    <title>售后保障</title>
    <desc>Created with Sketch.</desc>
    <defs></defs>
    <g id="Page-2" stroke="none" stroke-width="1" fill="none" fill-rule="evenodd">
        <g id="售后保障" transform="translate(-32.000000, -28.000000)">
            <g transform="translate(34.000000, 30.000000)">
                <path d="M26.0407987,60 C26.0407987,60 2.71219308,49.6970654 0.894631179,36.0603911 C-0.922899993,22.4239473 0.591503725,6.06039105 0.591503725,6.06039105 C0.591503725,6.06039105 18.4728212,8.52651283e-14 26.0407988,8.52651283e-14 C33.6087764,8.52651283e-14 51.5087988,6.06039105 51.5087988,6.06039105 C51.5087988,6.06039105 53.0246165,22.4240765 51.2056111,36.0603911 C49.3865574,49.6970675 26.0407987,60 26.0407987,60 Z" id="Shape" stroke="#D21F16" stroke-width="4" transform="translate(26.050455, 30.000000) scale(-1, 1) translate(-26.050455, -30.000000) "></path>
                <path d="M19.784,14.648 C18.188,18.876 15.5,23.02 12.728,25.68 C13.092,26.156 13.68,27.248 13.904,27.696 C14.912,26.66 15.948,25.456 16.9,24.112 L16.9,40.072 L18.888,40.072 L18.888,21.06 C19.98,19.24 20.932,17.252 21.744,15.236 L19.784,14.648 Z M24.628,17.756 L35.016,17.756 L35.016,22.88 L24.628,22.88 L24.628,17.756 Z M38.628,30.104 L38.628,28.2 L30.788,28.2 L30.788,24.728 L37.088,24.728 L37.088,15.88 L22.668,15.88 L22.668,24.728 L28.716,24.728 L28.716,28.2 L20.596,28.2 L20.596,30.104 L27.512,30.104 C25.636,33.072 22.668,35.844 19.784,37.272 C20.26,37.664 20.876,38.42 21.24,38.924 C23.956,37.356 26.756,34.556 28.716,31.476 L28.716,40.156 L30.788,40.156 L30.788,31.392 C32.664,34.444 35.352,37.356 37.872,38.98 C38.236,38.448 38.908,37.692 39.356,37.328 C36.668,35.872 33.84,33.044 31.992,30.104 L38.628,30.104 Z" id="保" fill="#D21F16"></path>
            </g>
        </g>
    </g>
</svg>